<?xml version="1.0" encoding="utf-8"?>
<svg height="100%" stroke-miterlimit="10" style="fill-rule:nonzero;clip-rule:evenodd;stroke-linecap:round;stroke-linejoin:round;" version="1.1" viewBox="19.893 208.877 480.295 104.192" width="100%" xmlns="http://www.w3.org/2000/svg">
  <defs>
    <clipPath id="TextBounds">
      <rect height="74.128" width="104.78" x="358.958" y="218.936"/>
    </clipPath>
    <clipPath id="TextBounds_2">
      <rect height="124.9" width="305.617" x="21.8665" y="193.55"/>
    </clipPath>
  </defs>
  <g id="Layer-1">
    <path d="M349.318 224.309L478.285 224.309C484.829 224.309 490.133 232.09 490.133 241.689L490.133 283.3C490.133 292.898 484.829 300.679 478.285 300.679L349.318 300.679C342.774 300.679 337.469 292.898 337.469 283.3L337.469 241.689C337.469 232.09 342.774 224.309 349.318 224.309Z" fill="#283044" fill-rule="evenodd" opacity="1" stroke="none"/>
    <g fill="#faa916" opacity="1" stroke="none">
      <path clip-path="url(#TextBounds)" d="M378.283 271.056L370.992 278.399L363.319 271.267L370.61 263.766L378.283 271.056Z" fill-rule="evenodd"/>
      <path clip-path="url(#TextBounds)" d="M417.214 242.435L415.104 250.582L411.598 250.912C412.116 251.553 412.604 252.318 413.061 253.206C413.351 253.777 413.619 254.484 413.865 255.328C414.138 256.26 414.261 257.125 414.234 257.925C414.19 259.384 413.892 260.72 413.338 261.933C412.459 263.832 411.25 265.273 409.712 266.257L408.737 266.89C409.431 267.312 410.499 268.116 411.94 269.303C413.786 271.192 414.696 273.557 414.669 276.395C414.652 278.971 413.839 281.273 412.23 283.304C410.745 285.185 408.757 286.637 406.265 287.661C403.773 288.685 401.191 289.197 398.519 289.197C392.552 289.197 388.074 287.808 385.085 285.031C384.075 284.09 383.424 283.392 383.134 282.935L388.803 276.725C388.047 276.725 388.381 277.169 389.805 278.057C390.798 278.672 391.875 279.265 393.035 279.836C394.318 280.452 395.698 280.746 397.175 280.72C399.038 280.685 400.708 280.28 402.185 279.507C403.626 278.742 404.333 277.472 404.307 275.697C404.281 273.895 403.611 272.515 402.297 271.557C400.983 270.599 399.368 270.107 397.452 270.081C396.133 270.063 394.824 270.168 393.523 270.397C392.363 270.608 390.97 270.986 389.344 271.531L390.425 268.406C388.333 267.466 386.527 265.752 385.006 263.265C383.96 261.568 383.446 259.52 383.464 257.121C383.481 254.599 384.134 252.322 385.422 250.292C386.709 248.262 388.482 246.671 390.741 245.52C393 244.368 395.377 243.77 397.873 243.727C399.35 243.7 401.042 243.792 402.949 244.003C404.637 244.197 405.863 244.302 406.627 244.32C410.495 243.907 414.023 243.278 417.214 242.435ZM404.623 257.227C404.553 255.504 403.92 254.137 402.725 253.126C401.6 252.186 400.238 251.716 398.638 251.716C397.109 251.716 395.856 252.239 394.881 253.285C393.835 254.41 393.286 255.688 393.233 257.121C393.171 258.782 393.664 260.25 394.709 261.524C395.685 262.729 396.92 263.331 398.414 263.331C400.304 263.331 401.811 262.764 402.936 261.63C404.131 260.426 404.694 258.958 404.623 257.227Z" fill-rule="evenodd"/>
      <path clip-path="url(#TextBounds)" d="M455.71 242.435L453.601 250.582L450.094 250.912C450.612 251.553 451.1 252.318 451.557 253.206C451.847 253.777 452.115 254.484 452.361 255.328C452.634 256.26 452.757 257.125 452.73 257.925C452.686 259.384 452.388 260.72 451.834 261.933C450.955 263.832 449.747 265.273 448.208 266.257L447.233 266.89C447.927 267.312 448.995 268.116 450.436 269.303C452.282 271.192 453.192 273.557 453.165 276.395C453.148 278.971 452.335 281.273 450.726 283.304C449.241 285.185 447.253 286.637 444.761 287.661C442.269 288.685 439.687 289.197 437.016 289.197C431.048 289.197 426.57 287.808 423.581 285.031C422.571 284.09 421.92 283.392 421.63 282.935L427.299 276.725C426.543 276.725 426.877 277.169 428.301 278.057C429.294 278.672 430.371 279.265 431.531 279.836C432.814 280.452 434.194 280.746 435.671 280.72C437.534 280.685 439.204 280.28 440.681 279.507C442.122 278.742 442.83 277.472 442.803 275.697C442.777 273.895 442.107 272.515 440.793 271.557C439.479 270.599 437.864 270.107 435.948 270.081C434.629 270.063 433.32 270.168 432.019 270.397C430.859 270.608 429.466 270.986 427.84 271.531L428.921 268.406C426.829 267.466 425.023 265.752 423.502 263.265C422.456 261.568 421.942 259.52 421.96 257.121C421.977 254.599 422.63 252.322 423.918 250.292C425.205 248.262 426.978 246.671 429.237 245.52C431.496 244.368 433.873 243.77 436.37 243.727C437.846 243.7 439.538 243.792 441.445 244.003C443.133 244.197 444.359 244.302 445.123 244.32C448.991 243.907 452.519 243.278 455.71 242.435ZM443.12 257.227C443.049 255.504 442.416 254.137 441.221 253.126C440.096 252.186 438.734 251.716 437.134 251.716C435.605 251.716 434.352 252.239 433.377 253.285C432.331 254.41 431.782 255.688 431.729 257.121C431.667 258.782 432.16 260.25 433.206 261.524C434.181 262.729 435.416 263.331 436.91 263.331C438.8 263.331 440.307 262.764 441.432 261.63C442.627 260.426 443.19 258.958 443.12 257.227Z" fill-rule="evenodd"/>
    </g>
    <g fill="#faa916" opacity="1" stroke="none">
      <path clip-path="url(#TextBounds_2)" d="M85.3982 244.695C85.3982 250.616 83.7153 255.641 80.3494 259.772C77.0447 263.811 72.4931 266.558 66.6946 268.011C64.7822 268.485 61.118 268.86 55.702 269.136C53.6671 269.013 51.8847 268.952 50.3548 268.952L50.3548 295.366L30.6873 297.065L30.6873 219.886L52.4202 219.886C62.3037 219.886 70.0529 221.631 75.6678 225.119C82.1548 229.158 85.3982 235.683 85.3982 244.695ZM66.1439 244.511C66.1133 241.252 64.9275 239.122 62.5867 238.12C60.2459 237.118 57.1401 236.616 53.2693 236.616L50.5384 236.616L50.5384 252.773L53.2693 252.773C61.8982 252.773 66.1898 250.019 66.1439 244.511Z" fill-rule="evenodd"/>
      <path clip-path="url(#TextBounds_2)" d="M116.701 295.55L97.3318 297.065L97.3318 219.886L116.701 217.913L116.701 295.55Z" fill-rule="evenodd"/>
      <path clip-path="url(#TextBounds_2)" d="M193.397 291.511L173.386 297.707L150.253 262.274L150.253 295.734L130.241 296.858L130.241 219.886L153.741 219.886C162.615 219.886 169.683 221.455 174.946 224.591C177.761 226.289 180.041 228.577 181.785 231.453C183.697 234.635 184.692 238.139 184.768 241.964C184.952 251.22 180.844 258.181 172.445 262.847L193.397 291.511ZM165.124 244.511C164.91 237.932 161.299 234.643 154.292 234.643L150.253 234.643L150.253 254.953L154.682 254.953C159.287 254.953 162.408 253.148 164.045 249.537C164.825 247.823 165.185 246.148 165.124 244.511Z" fill-rule="evenodd"/>
      <path clip-path="url(#TextBounds_2)" d="M255.268 278.82L250.288 295.55L204.229 295.55L204.229 219.886L249.347 219.886L253.203 236.616L223.69 236.616L223.69 248.55L244.918 248.55L244.918 265.28L223.507 265.28L223.507 278.82L255.268 278.82Z" fill-rule="evenodd"/>
      <path clip-path="url(#TextBounds_2)" d="M319.572 273.175C319.633 277.887 318.486 282.125 316.13 285.888C313.819 289.545 310.591 292.391 306.445 294.426C302.131 296.537 297.388 297.631 292.217 297.707C287.657 297.784 283.243 297.034 278.975 295.458C272.167 292.98 267.34 290.318 264.494 287.472L276.244 273.358C279.839 277.627 284.85 279.761 291.276 279.761C293.999 279.501 296.11 278.954 297.61 278.12C299.109 277.286 299.882 275.699 299.928 273.358C299.958 271.476 298.987 270.008 297.013 268.952C295.284 268.034 292.461 267.017 288.545 265.9C284.735 264.813 281.92 263.75 280.099 262.71C275.096 259.818 271.601 256.269 269.612 252.061C268.235 249.17 267.561 245.681 267.592 241.596C267.623 237.282 268.808 233.289 271.149 229.617C273.429 226.037 276.512 223.199 280.398 221.103C284.284 219.007 288.415 217.943 292.79 217.913C300.211 217.867 306.629 219.42 312.045 222.572C314.187 223.826 315.877 225.027 317.117 226.175L319.021 227.965L307.822 241.413C307.822 240.786 306.973 239.875 305.275 238.682C303.959 237.749 302.834 237.075 301.901 236.662C299.912 235.775 297.594 235.316 294.948 235.285C290.342 235.224 287.833 236.892 287.42 240.288C287.42 242.92 288.897 244.916 291.849 246.278C293.15 246.875 295.047 247.525 297.541 248.229L301.35 249.307C309.857 251.908 315.296 256.322 317.667 262.549C318.876 265.747 319.511 269.289 319.572 273.175Z" fill-rule="evenodd"/>
    </g>
  </g>
</svg>